<?xml version="1.0" encoding="UTF-8"?>
<!-- Generator: Adobe Illustrator 22.1.0, SVG Export Plug-In . SVG Version: 6.00 Build 0)  -->
<svg version="1.1" id="Layer_1" xmlns="http://www.w3.org/2000/svg" xmlns:xlink="http://www.w3.org/1999/xlink" x="0px" y="0px" viewBox="0 0 103.8 35" style="enable-background:new 0 0 103.8 35;" xml:space="preserve">
<style type="text/css">
	.st0{fill:#FFFFFF;}
</style>
<g>
	<path class="st0" d="M10.3,10.4c0-4.5-6.5-4.2-6.5-6c0-0.8,0.8-1.1,1.5-1.1c1.7,0,3.2,1.3,3.2,1.3L10,1.6C10,1.6,8.5,0,5.4,0   C2.6,0,0.3,1.7,0.3,4.4c0,4.4,6.5,4.4,6.5,6.1c0,0.9-0.8,1.1-1.5,1.1c-1.8,0-3.4-1.5-3.4-1.5L0,12.8c0,0,1.9,2.1,5.2,2.1   C8.5,14.9,10.3,12.8,10.3,10.4z"/>
	<polygon class="st0" points="22.6,11.6 16.8,11.6 16.8,8.9 21.2,8.9 21.2,5.9 16.8,5.9 16.8,3.3 22.3,3.3 22.3,0.2 13.3,0.2    13.3,14.6 22.6,14.6  "/>
	<path class="st0" d="M38.1,12.4l-1.8-2.6c0,0-1.6,1.8-3.8,1.8c-2.7,0-4.1-2.2-4.1-4.3c0-2.1,1.3-4.1,4.1-4.1c2,0,3.6,1.5,3.6,1.5   L37.7,2c0,0-1.8-2-5.4-2c-4.3,0-7.5,3.2-7.5,7.4c0,4.3,3,7.5,7.5,7.5C36,14.9,38.1,12.4,38.1,12.4z"/>
	<path class="st0" d="M44.1,9.8h1.6l2.6,4.8h3.9l-2.8-5c-0.3-0.6-0.5-0.9-0.5-0.9v0c1.4-0.7,2.2-2.4,2.2-3.9c0-2.1-1-3.6-2.7-4.2   c-0.6-0.2-1.3-0.3-2.8-0.3h-5v14.4h3.5V9.8z M44.1,3.3h1.2c1.8,0,2.2,0.6,2.2,1.7c0,1.1-0.7,1.8-1.8,1.8h-1.5V3.3z"/>
	<polygon class="st0" points="63.9,11.6 58.1,11.6 58.1,8.9 62.5,8.9 62.5,5.9 58.1,5.9 58.1,3.3 63.6,3.3 63.6,0.2 54.6,0.2    54.6,14.6 63.9,14.6  "/>
	<polygon class="st0" points="74,14.6 74,3.3 78.4,3.3 78.4,0.2 66.1,0.2 66.1,3.3 70.5,3.3 70.5,14.6  "/>
	<polygon class="st0" points="3.5,19.1 0,19.1 0,33.5 9.4,33.5 9.4,30.5 3.5,30.5  "/>
	<path class="st0" d="M17.5,18.9c-4.3,0-7.5,3.2-7.5,7.3c0,4.2,3.2,7.5,7.5,7.5c4.3,0,7.5-3.3,7.5-7.5   C25.1,22.1,21.9,18.9,17.5,18.9z M17.5,30.5c-2.2,0-3.9-1.9-3.9-4.3c0-2.4,1.7-4.1,3.9-4.1c2.2,0,3.9,1.8,3.9,4.1   C21.4,28.7,19.7,30.5,17.5,30.5z"/>
	<path class="st0" d="M40.3,31.3l-1.8-2.6c0,0-1.6,1.8-3.8,1.8c-2.7,0-4.1-2.2-4.1-4.3c0-2.1,1.3-4.1,4.1-4.1c2,0,3.6,1.5,3.6,1.5   l1.6-2.7c0,0-1.8-2-5.4-2c-4.3,0-7.5,3.2-7.5,7.4c0,4.3,3,7.5,7.5,7.5C38.3,33.7,40.3,31.3,40.3,31.3z"/>
	<polygon class="st0" points="54.3,22.1 58.7,22.1 58.7,33.5 62.2,33.5 62.2,22.1 66.6,22.1 66.6,19.1 54.3,19.1  "/>
	<rect x="68.8" y="19.1" class="st0" width="3.5" height="14.4"/>
	<path class="st0" d="M81.9,18.9c-4.3,0-7.5,3.2-7.5,7.3c0,4.2,3.2,7.5,7.5,7.5c4.3,0,7.5-3.3,7.5-7.5   C89.4,22.1,86.2,18.9,81.9,18.9z M81.9,30.5c-2.2,0-3.9-1.9-3.9-4.3c0-2.4,1.7-4.1,3.9-4.1c2.2,0,3.9,1.8,3.9,4.1   C85.8,28.7,84.1,30.5,81.9,30.5z"/>
	<path class="st0" d="M100.3,19.1v6.7c0,0.9,0.2,2.5,0.2,2.5h0c0,0-0.6-1.5-1.2-2.5l-4-6.7h-3.6v14.4h3.5v-6.7   c0-0.9-0.2-2.5-0.2-2.5h0c0,0,0.6,1.5,1.2,2.5l4,6.7h3.5V19.1H100.3z"/>
	<path class="st0" d="M45.6,18.2L40,35l18-3.9L45.6,18.2z M48.2,25.5l-6.9,8L45.8,20L48.2,25.5z M48.5,25.8l7.6,4.9l-14.7,3.2   L48.5,25.8z M48.6,25.3L46.2,20L56,30.1L48.6,25.3z"/>
</g>
</svg>